<svg width="17" height="17" viewBox="0 0 17 17" fill="none" xmlns="http://www.w3.org/2000/svg">
<path d="M6.29 11.8434C6.66778 12.2211 7.25333 12.2211 7.63111 11.8434L9.63333 9.84113L10.2944 9.18002C10.6722 8.80224 10.6722 8.21669 10.2944 7.83891L9.63333 7.1778L7.61222 5.15669C7.23444 4.77891 6.64889 4.77891 6.27111 5.15669C5.89333 5.53446 5.89333 6.12002 6.27111 6.4978L7.32889 7.55558H0.944444C0.415555 7.55558 0 7.97113 0 8.50002C0 9.02891 0.415555 9.44446 0.944444 9.44446H7.34778L6.29 10.5022C5.91222 10.88 5.91222 11.4656 6.29 11.8434Z" fill="#00792E"/>
<path d="M1.88885 0.755556V4.91111C1.88885 5.32667 2.22886 5.66667 2.64441 5.66667H3.02219C3.43774 5.66667 3.77774 5.32667 3.77774 4.91111V2.26667C3.77774 2.05889 3.94774 1.88889 4.15552 1.88889H14.7333C14.9411 1.88889 15.1111 2.05889 15.1111 2.26667V14.7333C15.1111 14.9411 14.9411 15.1111 14.7333 15.1111H4.15552C3.94774 15.1111 3.77774 14.9411 3.77774 14.7333V12.0889C3.77774 11.6733 3.43774 11.3333 3.02219 11.3333H2.64441C2.22886 11.3333 1.88885 11.6733 1.88885 12.0889V16.2444C1.88885 16.66 2.22886 17 2.64441 17H16.2444C16.66 17 17 16.66 17 16.2444V0.755556C17 0.34 16.66 0 16.2444 0H2.64441C2.22886 0 1.88885 0.34 1.88885 0.755556Z" fill="#00792E"/>
</svg>
