<svg width="24" height="25" viewBox="0 0 24 25" fill="none" xmlns="http://www.w3.org/2000/svg">
<path d="M20.3731 22.0284H18.829L14.5921 11.469C14.6644 11.2308 14.7036 10.9778 14.7036 10.7155C14.7036 9.29208 13.5636 8.13828 12.1574 8.13828C10.7506 8.13828 9.61088 9.29238 9.61088 10.7155C9.61088 10.9775 9.65011 11.2305 9.72184 11.4687L5.48487 22.0284H3.9408C3.48554 22.0284 3.11636 22.3161 3.11636 22.6711V24.3576C3.11636 24.7126 3.48554 25 3.9408 25H20.3731C20.8287 25 21.1973 24.7126 21.1973 24.3576V22.6711C21.1973 22.3161 20.8284 22.0284 20.3731 22.0284ZM10.9035 12.9571C11.2738 13.1698 11.701 13.2925 12.1571 13.2925C12.6132 13.2925 13.0398 13.1698 13.4099 12.9574L15.6938 18.649H8.61985L10.9035 12.9571ZM8.11775 19.9003H16.1956L17.0496 22.0287H7.26404L8.11775 19.9003Z" fill="white"/>
<path d="M23.7909 13.9935L22.0451 13.094C21.8024 12.9689 21.4432 13.1903 21.235 13.5888L15.6744 10.7232C15.6744 10.7375 15.6765 10.7511 15.6765 10.7659C15.6765 11.3318 15.5442 11.8655 15.312 12.3402L16.2732 14.7361L19.7554 16.5311C19.5598 16.9355 19.5938 17.3601 19.8368 17.4852L21.5825 18.3845C21.8294 18.5119 22.1971 18.2819 22.4035 17.8716L23.8641 14.9678C24.0708 14.5565 24.038 14.1209 23.7909 13.9935Z" fill="white"/>
<path d="M4.13403 8.48079L8.65616 10.8106C8.65587 10.7955 8.65411 10.7807 8.65411 10.7656C8.65411 9.56941 9.23877 8.51339 10.1323 7.86745L5.6134 5.53939L7.89261 1.00802L7.08808 0C7.08808 0 3.98765 0.10341 1.41068 5.2262C-0.684382 9.39133 0.0750639 11.8871 0.432244 12.6747V22.9152H0.844464V12.9603L1.85452 13.0116L4.13403 8.48079Z" fill="white"/>
</svg>
